<?xml version="1.0" standalone="no"?>
<!DOCTYPE svg PUBLIC "-//W3C//DTD SVG 20010904//EN"
 "http://www.w3.org/TR/2001/REC-SVG-20010904/DTD/svg10.dtd">
<svg version="1.0" xmlns="http://www.w3.org/2000/svg"
 width="980.000000pt" height="980.000000pt" viewBox="0 0 980.000000 980.000000"
 preserveAspectRatio="xMidYMid meet">
<metadata>
Created by potrace 1.11, written by Peter Selinger 2001-2013
</metadata>
<g transform="translate(0.000000,980.000000) scale(0.100000,-0.100000)"
fill="#000000" stroke="none">
<path d="M4528 9088 l-3 -712 -165 -28 c-617 -105 -1136 -330 -1620 -704 -148
-114 -470 -436 -584 -584 -371 -480 -598 -999 -701 -1605 -15 -88 -29 -166
-31 -172 -3 -10 -154 -13 -714 -13 l-710 0 0 -370 0 -370 712 -2 713 -3 8 -55
c21 -137 90 -457 126 -581 122 -416 334 -819 627 -1189 87 -110 404 -427 514
-514 292 -231 642 -432 955 -549 210 -79 553 -165 815 -204 l55 -8 3 -713 2
-712 370 0 370 0 2 712 3 713 30 3 c83 9 487 96 608 132 191 56 306 100 484
185 373 179 669 390 969 689 296 297 510 596 683 958 150 312 232 582 304
1000 l23 133 712 3 712 2 0 370 0 370 -712 2 -711 3 -23 135 c-114 672 -337
1181 -740 1690 -87 110 -404 427 -514 514 -509 403 -1017 625 -1690 740 l-135
23 -3 711 -2 712 -370 0 -370 0 -2 -712z m-6 -1388 c3 -30 6 -457 7 -947 l1
-893 369 0 370 0 3 944 c2 519 6 948 11 952 11 11 228 -32 390 -78 481 -135
909 -387 1267 -747 198 -199 330 -372 470 -616 153 -265 282 -625 340 -947
l17 -98 -953 0 -954 0 0 -370 0 -370 954 0 953 0 -19 -107 c-106 -593 -412
-1174 -834 -1583 -420 -408 -978 -693 -1541 -789 l-103 -18 0 954 0 953 -370
0 -370 0 0 -954 0 -953 -97 17 c-317 58 -649 174 -916 321 -683 377 -1192
1020 -1400 1773 -42 150 -84 363 -73 373 4 5 433 9 952 11 l944 3 0 370 0 369
-954 0 -953 0 17 98 c58 321 188 683 340 947 141 247 273 419 474 621 360 361
765 600 1250 739 181 52 330 85 371 82 29 -2 30 -5 37 -57z"/>
</g>
</svg>
